<svg width="61" height="54" viewBox="0 0 61 54" fill="none" xmlns="http://www.w3.org/2000/svg">
  <path d="M29.5869 38.5026C29.7839 38.5242 29.9826 38.5242 30.1796 38.5026C30.3619 38.524 30.5461 38.524 30.7284 38.5026C35.1828 37.0628 39.0431 34.2037 41.7189 30.3625C44.3947 26.5212 45.7387 21.9093 45.5454 17.2319C45.5454 15.0368 45.5454 12.8417 45.4356 10.9539C45.4011 10.4875 45.2185 10.0443 44.9144 9.68896C44.6104 9.33359 44.2008 9.08461 43.7454 8.97832H43.5917C43.4397 8.94634 43.2827 8.94634 43.1307 8.97832H42.8234C40.6493 9.00477 38.5083 8.44357 36.6267 7.354C34.745 6.26443 33.1926 4.68693 32.1332 2.78811L32.0893 2.50274C32.0066 2.37615 31.9109 2.25845 31.804 2.15152C31.6996 2.05712 31.5897 1.96915 31.4747 1.88811L31.321 1.7564C31.2484 1.74369 31.1741 1.74369 31.1015 1.7564C30.9708 1.68956 30.8298 1.64505 30.6844 1.62469H30.2674H29.8723C29.7206 1.64819 29.5728 1.69251 29.4332 1.7564C29.3677 1.74709 29.3012 1.74709 29.2357 1.7564C29.2357 1.7564 29.2357 1.7564 29.082 1.7564C28.9624 1.8395 28.852 1.93517 28.7528 2.04177L28.4674 2.50274C28.4674 2.50274 28.4674 2.50274 28.3576 2.6564C27.2291 4.55778 25.6218 6.13 23.6959 7.21619C21.7701 8.30237 19.593 8.86454 17.3821 8.84662C17.0807 8.80929 16.7749 8.83489 16.484 8.9218C16.1931 9.0087 15.9233 9.15501 15.6918 9.35149C15.4363 9.54222 15.2253 9.78634 15.0737 10.0669C14.9221 10.3474 14.8334 10.6576 14.8138 10.9759C14.8138 12.71 14.8138 14.5539 14.8138 16.4637V17.1661C14.5881 21.8519 15.913 26.4816 18.5835 30.3386C21.2541 34.1956 25.1213 37.0649 29.5869 38.5026ZM27.9845 17.671L30.1796 13.0612L32.3747 17.671L37.3137 18.3954L33.7576 21.9953L34.5698 27.0661L30.1796 24.6953L25.7893 27.0661L26.6235 21.9953L23.0674 18.3954L27.9845 17.671Z" fill="url(#paint0_linear_300:1399)"/>
  <path d="M52.8842 4.39003C53.0585 3.86963 53.1116 3.31626 53.0393 2.7722C52.967 2.22815 52.7713 1.70783 52.4671 1.25102C52.2131 0.821227 51.8385 0.475563 51.3896 0.257006C50.9408 0.0384492 50.4376 -0.0433587 49.9427 0.0217553C49.7667 0.5419 49.7128 1.09558 49.7851 1.63991C49.8574 2.18425 50.054 2.70463 50.3598 3.16077C50.6094 3.59462 50.9833 3.94367 51.4333 4.1628C51.8833 4.38193 52.3887 4.46109 52.8842 4.39003Z" fill="url(#paint1_linear_300:1399)"/>
  <path d="M57.0028 5.96949C57.1967 5.4308 57.2678 4.85558 57.2108 4.28588C57.1539 3.71619 56.9703 3.16643 56.6735 2.67682C56.1516 2.82678 55.6764 3.10689 55.2924 3.49086C54.9085 3.87482 54.6283 4.35004 54.4784 4.87193C54.2793 5.41239 54.2036 5.99053 54.2567 6.56404C54.3099 7.13754 54.4906 7.69191 54.7857 8.18655C55.3123 8.03408 55.7917 7.75083 56.1794 7.36318C56.567 6.97553 56.8503 6.49608 57.0028 5.96949Z" fill="url(#paint2_linear_300:1399)"/>
  <path d="M51.5234 9.08446C52.0118 9.24643 52.5366 9.26425 53.0349 9.13578C53.5332 9.00731 53.9839 8.73801 54.3332 8.36008C54.2068 7.85455 53.9558 7.38875 53.603 7.00528C53.2502 6.62181 52.8069 6.3329 52.3137 6.16496C51.8279 5.99473 51.3029 5.97054 50.8036 6.09537C50.3042 6.22021 49.8524 6.48861 49.5039 6.8674C49.6231 7.37867 49.8713 7.85088 50.2249 8.239C50.5784 8.62711 51.0254 8.91818 51.5234 9.08446Z" fill="url(#paint3_linear_300:1399)"/>
  <path d="M56.0362 11.7651C55.7474 12.3244 55.5823 12.9392 55.552 13.5679C55.5217 14.1966 55.6269 14.8245 55.8606 15.409C56.4342 15.3408 56.9811 15.1277 57.4496 14.7898C57.9182 14.4518 58.2929 14.0001 58.5386 13.4773C58.8579 12.9084 59.04 12.2729 59.0705 11.6212C59.101 10.9696 58.979 10.3198 58.7142 9.72363C58.1298 9.80439 57.5761 10.0348 57.1069 10.3924C56.6377 10.7501 56.2689 11.2229 56.0362 11.7651Z" fill="url(#paint4_linear_300:1399)"/>
  <path d="M52.1301 15.6752C52.6142 15.9563 53.1708 16.0875 53.7295 16.0523C54.2882 16.0172 54.824 15.8172 55.2691 15.4777C55.2384 14.8848 55.0569 14.3096 54.742 13.8065C54.427 13.3033 53.9889 12.8887 53.4691 12.6021C52.9849 12.321 52.4283 12.1898 51.8696 12.225C51.3109 12.2601 50.7752 12.4601 50.3301 12.7996C50.3608 13.3925 50.5422 13.9677 50.8572 14.4708C51.1722 14.974 51.6103 15.3885 52.1301 15.6752Z" fill="url(#paint5_linear_300:1399)"/>
  <path d="M56.6351 22.72C57.2532 22.8257 57.8886 22.754 58.4676 22.5131C59.0465 22.2722 59.5452 21.872 59.9058 21.359C60.3535 20.8278 60.6765 20.2031 60.8512 19.5308C61.0259 18.8585 61.0479 18.1556 60.9156 17.4736C60.2924 17.3738 59.6537 17.4504 59.0717 17.6948C58.4898 17.9392 57.9879 18.3416 57.6229 18.8566C57.1836 19.3879 56.8673 20.0098 56.6965 20.6777C56.5257 21.3456 56.5048 22.043 56.6351 22.72Z" fill="url(#paint6_linear_300:1399)"/>
  <path d="M54.7513 18.9222C54.3257 18.4832 53.7795 18.1801 53.1818 18.0512C52.5841 17.9223 51.9616 17.9733 51.3928 18.1978C51.3099 18.8655 51.3816 19.5434 51.6024 20.179C51.8231 20.8146 52.187 21.391 52.666 21.8636C53.0883 22.3077 53.6346 22.6143 54.2336 22.7435C54.8326 22.8727 55.4567 22.8185 56.0245 22.588C56.1074 21.9203 56.0357 21.2424 55.815 20.6068C55.5942 19.9712 55.2303 19.3948 54.7513 18.9222Z" fill="url(#paint7_linear_300:1399)"/>
  <path d="M57.1346 25.6161C56.6324 26.0878 56.2418 26.6655 55.9912 27.3073C55.7405 27.9491 55.6362 28.6386 55.6859 29.3258C56.2751 29.5265 56.9099 29.5525 57.5136 29.4006C58.1173 29.2487 58.6642 28.9254 59.0883 28.4697C59.5957 28.0011 59.9913 27.4244 60.2459 26.7823C60.5005 26.1401 60.6075 25.449 60.559 24.76C59.9655 24.5656 59.3292 24.5428 58.7234 24.6943C58.1175 24.8458 57.5668 25.1653 57.1346 25.6161Z" fill="url(#paint8_linear_300:1399)"/>
  <path d="M55.1002 29.1089C55.2783 28.4528 55.3016 27.7643 55.1683 27.0977C55.035 26.4311 54.7487 25.8045 54.3319 25.2674C53.9779 24.7634 53.4824 24.3755 52.9081 24.1529C52.3338 23.9302 51.7064 23.8826 51.1051 24.0162C50.9331 24.6756 50.9169 25.3661 51.0578 26.0328C51.1988 26.6996 51.4931 27.3243 51.9173 27.8577C52.2719 28.3496 52.7606 28.7291 53.3249 28.9509C53.8893 29.1728 54.5056 29.2276 55.1002 29.1089Z" fill="url(#paint9_linear_300:1399)"/>
  <path d="M55.0257 32.705C54.3456 32.9768 53.7443 33.4144 53.2765 33.978C52.8088 34.5416 52.4895 35.2133 52.3477 35.9319C52.8318 36.4029 53.4453 36.7192 54.1099 36.8404C54.7744 36.9616 55.46 36.8822 56.0793 36.6123C56.7513 36.3347 57.3437 35.8944 57.8035 35.3312C58.2632 34.768 58.5759 34.0994 58.7135 33.3855C58.2331 32.9233 57.6274 32.6123 56.9718 32.4914C56.3162 32.3704 55.6394 32.4447 55.0257 32.705Z" fill="url(#paint10_linear_300:1399)"/>
  <path d="M51.8166 35.4264C52.2029 34.7698 52.4421 34.0373 52.5179 33.2794C52.5937 32.5215 52.5042 31.7561 52.2557 31.0361C52.0717 30.3533 51.7078 29.7324 51.202 29.2382C50.6961 28.7439 50.067 28.3945 49.3801 28.2264C48.9911 28.8818 48.7502 29.6145 48.6744 30.3729C48.5985 31.1313 48.6895 31.8971 48.941 32.6166C49.1251 33.2994 49.489 33.9203 49.9948 34.4146C50.5006 34.9088 51.1298 35.2582 51.8166 35.4264Z" fill="url(#paint11_linear_300:1399)"/>
  <path d="M50.9068 38.8955C50.1583 39.1924 49.4955 39.6709 48.9782 40.2879C48.4609 40.9049 48.1052 41.6409 47.9434 42.4297C48.473 42.9524 49.1468 43.3049 49.8783 43.4418C50.6097 43.5787 51.3654 43.4938 52.0482 43.198C52.7951 42.8924 53.4557 42.4085 53.9723 41.7886C54.4889 41.1687 54.8458 40.4316 55.0116 39.6419C54.4796 39.1228 53.8046 38.7744 53.0732 38.6415C52.3419 38.5085 51.5875 38.597 50.9068 38.8955Z" fill="url(#paint12_linear_300:1399)"/>
  <path d="M47.8493 37.0079C47.6436 36.2584 47.2425 35.5769 46.6872 35.0331C46.1318 34.4893 45.442 34.1027 44.6883 33.9128C44.256 34.6361 43.9886 35.4459 43.9051 36.2845C43.8217 37.123 43.9242 37.9696 44.2054 38.764C44.4111 39.5135 44.8122 40.195 45.3675 40.7388C45.9229 41.2826 46.6127 41.6692 47.3664 41.8591C47.7987 41.1358 48.0661 40.326 48.1496 39.4874C48.2331 38.6489 48.1305 37.8023 47.8493 37.0079Z" fill="url(#paint13_linear_300:1399)"/>
  <path d="M10.5982 3.16305C10.8994 2.70491 11.0933 2.18471 11.1655 1.64121C11.2378 1.09771 11.1864 0.544923 11.0153 0.0240334C10.5273 -0.0321429 10.0335 0.0540165 9.59339 0.272126C9.15328 0.490235 8.78565 0.830983 8.5348 1.2533C8.24869 1.71888 8.07233 2.24349 8.01908 2.78736C7.96584 3.33122 8.03711 3.88008 8.22749 4.39231C8.6984 4.43218 9.17098 4.33789 9.59053 4.12034C10.0101 3.9028 10.3594 3.5709 10.5982 3.16305Z" fill="url(#paint14_linear_300:1399)"/>
  <path d="M6.16296 8.23059C6.45802 7.73594 6.63875 7.18158 6.69193 6.60808C6.7451 6.03457 6.66937 5.45643 6.47028 4.91597C6.32031 4.39408 6.0402 3.91886 5.65624 3.53489C5.27228 3.15093 4.79705 2.87082 4.27517 2.72086C3.97838 3.21046 3.79478 3.76022 3.73781 4.32992C3.68085 4.89962 3.75194 5.47484 3.9459 6.01352C4.0965 6.54107 4.37912 7.0215 4.76705 7.40944C5.15498 7.79737 5.63542 8.07999 6.16296 8.23059Z" fill="url(#paint15_linear_300:1399)"/>
  <path d="M9.48553 9.08696C9.98083 8.92263 10.4261 8.63489 10.7794 8.25084C11.1328 7.86679 11.3825 7.3991 11.505 6.89185C11.1565 6.51305 10.7047 6.24465 10.2054 6.11982C9.70601 5.99498 9.18103 6.01917 8.69528 6.18941C8.20202 6.35734 7.75872 6.64625 7.40593 7.02973C7.05313 7.4132 6.8021 7.87899 6.67578 8.38452C7.02749 8.75866 7.47934 9.02379 7.9775 9.14833C8.47567 9.27287 8.99913 9.25157 9.48553 9.08696Z" fill="url(#paint16_linear_300:1399)"/>
  <path d="M5.13833 15.409C5.37199 14.8245 5.47723 14.1966 5.44693 13.5679C5.41663 12.9392 5.2515 12.3244 4.96272 11.7651C4.73001 11.2229 4.36117 10.7501 3.89197 10.3924C3.42277 10.0348 2.86911 9.80439 2.28468 9.72363C2.01992 10.3198 1.89792 10.9696 1.92841 11.6212C1.9589 12.2729 2.14102 12.9084 2.46029 13.4773C2.70597 14.0001 3.08074 14.4518 3.54927 14.7898C4.0178 15.1277 4.56466 15.3408 5.13833 15.409Z" fill="url(#paint17_linear_300:1399)"/>
  <path d="M8.84018 15.6726C9.36614 15.3821 9.80819 14.9607 10.1235 14.4492C10.4389 13.9377 10.6168 13.3535 10.6402 12.7531C10.1951 12.4136 9.65933 12.2136 9.10062 12.1784C8.54191 12.1433 7.98532 12.2745 7.50116 12.5556C6.98135 12.8422 6.54325 13.2568 6.22828 13.7599C5.91332 14.2631 5.7319 14.8383 5.70117 15.4312C6.14177 15.7775 6.67524 15.9853 7.23403 16.0283C7.79282 16.0713 8.3518 15.9475 8.84018 15.6726Z" fill="url(#paint18_linear_300:1399)"/>
  <path d="M4.36571 22.7181C4.49782 22.0397 4.47566 21.3402 4.30088 20.6714C4.12609 20.0027 3.80315 19.3818 3.35596 18.8547C2.99626 18.3397 2.49847 17.9367 1.91985 17.692C1.34124 17.4474 0.705315 17.3711 0.0852406 17.4718C-0.0471056 18.1538 -0.0251083 18.8567 0.149619 19.529C0.324346 20.2013 0.647369 20.826 1.09499 21.3572C1.4556 21.8702 1.95434 22.2704 2.53328 22.5113C3.11223 22.7522 3.74763 22.8239 4.36571 22.7181Z" fill="url(#paint19_linear_300:1399)"/>
  <path d="M4.98707 22.588C5.55489 22.8185 6.17895 22.8727 6.77798 22.7435C7.37702 22.6143 7.92327 22.3077 8.34559 21.8636C8.82454 21.391 9.18845 20.8146 9.4092 20.179C9.62996 19.5434 9.70166 18.8655 9.61876 18.1978C9.05 17.9733 8.42748 17.9223 7.82976 18.0512C7.23203 18.1801 6.68589 18.4832 6.26024 18.9222C5.76984 19.3865 5.39821 19.9619 5.17664 20.5998C4.95507 21.2378 4.89006 21.9197 4.98707 22.588Z" fill="url(#paint20_linear_300:1399)"/>
  <path d="M5.31271 29.3258C5.35958 28.6369 5.25184 27.9463 4.99737 27.3044C4.7429 26.6626 4.34814 26.0857 3.84198 25.6161C3.40981 25.1653 2.85907 24.8458 2.25323 24.6943C1.64738 24.5428 1.01108 24.5656 0.417607 24.76C0.369151 25.449 0.476161 26.1401 0.730728 26.7823C0.985295 27.4244 1.38091 28.0011 1.88833 28.4697C2.31428 28.9296 2.86496 29.2555 3.47309 29.4075C4.08121 29.5595 4.72045 29.5312 5.31271 29.3258Z" fill="url(#paint21_linear_300:1399)"/>
  <path d="M9.12588 27.8577C9.55012 27.3243 9.84438 26.6996 9.98535 26.0328C10.1263 25.3661 10.1101 24.6756 9.93807 24.0162C9.33677 23.8826 8.70936 23.9302 8.13506 24.1529C7.56075 24.3755 7.0653 24.7634 6.71125 25.2674C6.28325 25.7989 5.98501 26.4228 5.84021 27.0896C5.69542 27.7564 5.70805 28.4478 5.87711 29.1089C6.48165 29.2413 7.11175 29.1933 7.68927 28.9708C8.26678 28.7484 8.7663 28.3614 9.12588 27.8577Z" fill="url(#paint22_linear_300:1399)"/>
  <path d="M6.03489 32.7052C5.41285 32.4306 4.7228 32.3486 4.05373 32.4699C3.38467 32.5912 2.76729 32.9102 2.28125 33.3857C2.42515 34.1066 2.74777 34.7798 3.21952 35.3436C3.69126 35.9074 4.29702 36.3437 4.98124 36.6125C5.60054 36.8823 6.28614 36.9617 6.95071 36.8405C7.61528 36.7193 8.22874 36.4031 8.71293 35.932C8.57113 35.2135 8.25182 34.5418 7.78408 33.9782C7.31633 33.4146 6.71501 32.977 6.03489 32.7052Z" fill="url(#paint23_linear_300:1399)"/>
  <path d="M8.73227 31.0385C8.47927 31.7577 8.38745 32.5238 8.46332 33.2824C8.53919 34.0411 8.78088 34.7738 9.17129 35.4287C9.85785 35.2574 10.4854 34.9039 10.9877 34.4055C11.49 33.907 11.8483 33.2822 12.0249 32.597C12.2842 31.8799 12.3813 31.1142 12.3092 30.3551C12.2371 29.596 11.9976 28.8622 11.6079 28.2068C10.9173 28.3746 10.2851 28.7266 9.77873 29.2252C9.27235 29.7239 8.91069 30.3506 8.73227 31.0385Z" fill="url(#paint24_linear_300:1399)"/>
  <path d="M12.9866 42.6486C13.5009 41.5374 12.3661 39.9182 10.4518 39.032C8.53752 38.1458 6.56872 38.3282 6.05437 39.4394C5.54001 40.5506 6.67487 42.1698 8.58915 43.056C10.5034 43.9421 12.4722 43.7598 12.9866 42.6486Z" fill="url(#paint25_linear_300:1399)"/>
  <path d="M13.1515 37.0079C12.8657 37.8014 12.7607 38.6488 12.8443 39.4881C12.9278 40.3274 13.1978 41.1375 13.6344 41.8591C14.3841 41.6658 15.0693 41.2776 15.6206 40.7341C16.1719 40.1905 16.5696 39.5108 16.7735 38.764C17.0579 37.9712 17.1641 37.1254 17.0844 36.2869C17.0048 35.4484 16.7412 34.6378 16.3125 33.9128C15.5588 34.1027 14.869 34.4893 14.3136 35.0331C13.7583 35.5769 13.3572 36.2584 13.1515 37.0079Z" fill="url(#paint26_linear_300:1399)"/>
  <path d="M34.3925 39.6652H25.9632C24.3473 39.6749 22.7823 40.2312 21.5228 41.2436C20.2633 42.2559 19.3835 43.6648 19.0267 45.2408L17.7096 51.2115C17.6404 51.5321 17.6439 51.8642 17.7199 52.1833C17.7958 52.5024 17.9423 52.8004 18.1486 53.0554C18.3552 53.3101 18.6163 53.5152 18.9126 53.6558C19.2089 53.7963 19.5329 53.8687 19.8608 53.8676H40.4949C40.8228 53.8687 41.1468 53.7963 41.4431 53.6558C41.7394 53.5152 42.0005 53.3101 42.2071 53.0554C42.4134 52.8004 42.5599 52.5024 42.6359 52.1833C42.7118 51.8642 42.7153 51.5321 42.6461 51.2115L41.329 45.2408C40.9722 43.6648 40.0924 42.2559 38.8329 41.2436C37.5734 40.2312 36.0084 39.6749 34.3925 39.6652Z" fill="url(#paint27_linear_300:1399)"/>
  <defs>
  <linearGradient id="paint0_linear_300:1399" x1="30.1764" y1="1.62469" x2="30.1764" y2="38.5188" gradientUnits="userSpaceOnUse">
  <stop stop-color="#FDC821"/>
  <stop offset="1" stop-color="#FFA412"/>
  </linearGradient>
  <linearGradient id="paint1_linear_300:1399" x1="51.4123" y1="0" x2="51.4123" y2="4.41538" gradientUnits="userSpaceOnUse">
  <stop stop-color="#FDC821"/>
  <stop offset="1" stop-color="#FFA412"/>
  </linearGradient>
  <linearGradient id="paint2_linear_300:1399" x1="55.7351" y1="2.67682" x2="55.7351" y2="8.18655" gradientUnits="userSpaceOnUse">
  <stop stop-color="#FDC821"/>
  <stop offset="1" stop-color="#FFA412"/>
  </linearGradient>
  <linearGradient id="paint3_linear_300:1399" x1="51.9185" y1="6.01672" x2="51.9185" y2="9.22058" gradientUnits="userSpaceOnUse">
  <stop stop-color="#FDC821"/>
  <stop offset="1" stop-color="#FFA412"/>
  </linearGradient>
  <linearGradient id="paint4_linear_300:1399" x1="57.311" y1="9.72363" x2="57.311" y2="15.409" gradientUnits="userSpaceOnUse">
  <stop stop-color="#FDC821"/>
  <stop offset="1" stop-color="#FFA412"/>
  </linearGradient>
  <linearGradient id="paint5_linear_300:1399" x1="52.7996" y1="12.2194" x2="52.7996" y2="16.0579" gradientUnits="userSpaceOnUse">
  <stop stop-color="#FDC821"/>
  <stop offset="1" stop-color="#FFA412"/>
  </linearGradient>
  <linearGradient id="paint6_linear_300:1399" x1="58.7758" y1="17.4311" x2="58.7758" y2="22.7674" gradientUnits="userSpaceOnUse">
  <stop stop-color="#FDC821"/>
  <stop offset="1" stop-color="#FFA412"/>
  </linearGradient>
  <linearGradient id="paint7_linear_300:1399" x1="53.7087" y1="17.9816" x2="53.7087" y2="22.812" gradientUnits="userSpaceOnUse">
  <stop stop-color="#FDC821"/>
  <stop offset="1" stop-color="#FFA412"/>
  </linearGradient>
  <linearGradient id="paint8_linear_300:1399" x1="58.1221" y1="24.5953" x2="58.1221" y2="29.4981" gradientUnits="userSpaceOnUse">
  <stop stop-color="#FDC821"/>
  <stop offset="1" stop-color="#FFA412"/>
  </linearGradient>
  <linearGradient id="paint9_linear_300:1399" x1="53.1082" y1="23.942" x2="53.1082" y2="29.1701" gradientUnits="userSpaceOnUse">
  <stop stop-color="#FDC821"/>
  <stop offset="1" stop-color="#FFA412"/>
  </linearGradient>
  <linearGradient id="paint10_linear_300:1399" x1="55.5306" y1="32.4349" x2="55.5306" y2="36.8956" gradientUnits="userSpaceOnUse">
  <stop stop-color="#FDC821"/>
  <stop offset="1" stop-color="#FFA412"/>
  </linearGradient>
  <linearGradient id="paint11_linear_300:1399" x1="50.5962" y1="28.2264" x2="50.5962" y2="35.4264" gradientUnits="userSpaceOnUse">
  <stop stop-color="#FDC821"/>
  <stop offset="1" stop-color="#FFA412"/>
  </linearGradient>
  <linearGradient id="paint12_linear_300:1399" x1="51.4775" y1="38.5813" x2="51.4775" y2="43.5055" gradientUnits="userSpaceOnUse">
  <stop stop-color="#FDC821"/>
  <stop offset="1" stop-color="#FFA412"/>
  </linearGradient>
  <linearGradient id="paint13_linear_300:1399" x1="46.0274" y1="33.9128" x2="46.0274" y2="41.8591" gradientUnits="userSpaceOnUse">
  <stop stop-color="#FDC821"/>
  <stop offset="1" stop-color="#FFA412"/>
  </linearGradient>
  <linearGradient id="paint14_linear_300:1399" x1="9.59962" y1="0.00732422" x2="9.59962" y2="4.40123" gradientUnits="userSpaceOnUse">
  <stop stop-color="#FDC821"/>
  <stop offset="1" stop-color="#FFA412"/>
  </linearGradient>
  <linearGradient id="paint15_linear_300:1399" x1="5.21359" y1="2.72086" x2="5.21359" y2="8.23059" gradientUnits="userSpaceOnUse">
  <stop stop-color="#FDC821"/>
  <stop offset="1" stop-color="#FFA412"/>
  </linearGradient>
  <linearGradient id="paint16_linear_300:1399" x1="9.0904" y1="6.04117" x2="9.0904" y2="9.22829" gradientUnits="userSpaceOnUse">
  <stop stop-color="#FDC821"/>
  <stop offset="1" stop-color="#FFA412"/>
  </linearGradient>
  <linearGradient id="paint17_linear_300:1399" x1="3.68793" y1="9.72363" x2="3.68793" y2="15.409" gradientUnits="userSpaceOnUse">
  <stop stop-color="#FDC821"/>
  <stop offset="1" stop-color="#FFA412"/>
  </linearGradient>
  <linearGradient id="paint18_linear_300:1399" x1="8.17067" y1="12.1729" x2="8.17067" y2="16.0367" gradientUnits="userSpaceOnUse">
  <stop stop-color="#FDC821"/>
  <stop offset="1" stop-color="#FFA412"/>
  </linearGradient>
  <linearGradient id="paint19_linear_300:1399" x1="2.22534" y1="17.4286" x2="2.22534" y2="22.7656" gradientUnits="userSpaceOnUse">
  <stop stop-color="#FDC821"/>
  <stop offset="1" stop-color="#FFA412"/>
  </linearGradient>
  <linearGradient id="paint20_linear_300:1399" x1="7.29778" y1="17.9816" x2="7.29778" y2="22.812" gradientUnits="userSpaceOnUse">
  <stop stop-color="#FDC821"/>
  <stop offset="1" stop-color="#FFA412"/>
  </linearGradient>
  <linearGradient id="paint21_linear_300:1399" x1="2.86482" y1="24.5953" x2="2.86482" y2="29.5039" gradientUnits="userSpaceOnUse">
  <stop stop-color="#FDC821"/>
  <stop offset="1" stop-color="#FFA412"/>
  </linearGradient>
  <linearGradient id="paint22_linear_300:1399" x1="7.91027" y1="23.942" x2="7.91027" y2="29.182" gradientUnits="userSpaceOnUse">
  <stop stop-color="#FDC821"/>
  <stop offset="1" stop-color="#FFA412"/>
  </linearGradient>
  <linearGradient id="paint23_linear_300:1399" x1="5.49709" y1="32.4153" x2="5.49709" y2="36.8957" gradientUnits="userSpaceOnUse">
  <stop stop-color="#FDC821"/>
  <stop offset="1" stop-color="#FFA412"/>
  </linearGradient>
  <linearGradient id="paint24_linear_300:1399" x1="10.3849" y1="28.2068" x2="10.3849" y2="35.4287" gradientUnits="userSpaceOnUse">
  <stop stop-color="#FDC821"/>
  <stop offset="1" stop-color="#FFA412"/>
  </linearGradient>
  <linearGradient id="paint25_linear_300:1399" x1="6.05437" y1="39.4394" x2="12.9867" y2="42.6483" gradientUnits="userSpaceOnUse">
  <stop stop-color="#FDC821"/>
  <stop offset="1" stop-color="#FFA412"/>
  </linearGradient>
  <linearGradient id="paint26_linear_300:1399" x1="14.9633" y1="33.9128" x2="14.9633" y2="41.8591" gradientUnits="userSpaceOnUse">
  <stop stop-color="#FDC821"/>
  <stop offset="1" stop-color="#FFA412"/>
  </linearGradient>
  <linearGradient id="paint27_linear_300:1399" x1="30.1779" y1="39.6652" x2="30.1779" y2="53.8676" gradientUnits="userSpaceOnUse">
  <stop stop-color="#FDC821"/>
  <stop offset="1" stop-color="#FFA412"/>
  </linearGradient>
  </defs>
</svg>
