<svg width="22" height="20" viewBox="0 0 22 20" fill="none" xmlns="http://www.w3.org/2000/svg">
<path fill-rule="evenodd" clip-rule="evenodd" d="M9 0H7V2.496C6.008 2.726 5.01 3.039 4 3.437V1H2V4.33C1.503 4.577 1.004 4.843 0.5 5.13L1.5 6.87C1.667 6.774 1.834 6.68 2 6.59V8.57C1.66 8.785 1.326 9.011 1 9.25V16H7.25C7.5358 15.2417 8.05018 14.5909 8.72198 14.1376C9.39378 13.6844 10.1898 13.4511 11 13.47C11.8102 13.4511 12.6062 13.6844 13.278 14.1376C13.9498 14.5909 14.4642 15.2417 14.75 16H21V9.25C20.674 9.004 20.34 8.771 20 8.551V6.59C20.166 6.68 20.333 6.774 20.5 6.87L21.5 5.13C21.0076 4.84937 20.5074 4.58259 20 4.33V1H18V3.437C17.0248 3.04938 16.022 2.73517 15 2.497V0H13V2.149C11.6712 1.99366 10.3288 1.99366 9 2.149V0ZM18 5.6V7.444C17.0362 6.99355 16.0316 6.63594 15 6.376V4.541C16.0266 4.8137 17.0297 5.16782 18 5.6ZM13 4.145C11.6726 3.9675 10.3274 3.9675 9 4.145V6.026C9.69293 5.93234 10.3908 5.88025 11.09 5.87C11.731 5.877 12.369 5.92 13 6V4.145ZM4 5.6C4.97023 5.16748 5.97341 4.81302 7 4.54V6.416C5.96969 6.67987 4.96554 7.03701 4 7.483V5.6ZM11.09 7.87C13.9076 7.88867 16.6579 8.73356 19 10.3V14H16C15.4354 13.2032 14.6848 12.5563 13.8135 12.1154C12.9422 11.6745 11.9764 11.453 11 11.47C10.032 11.4611 9.07627 11.6866 8.21432 12.1271C7.35236 12.5677 6.6098 13.2103 6.05 14H3V10.32C5.41491 8.76377 8.21744 7.91505 11.09 7.87ZM17.56 18.57L19.45 19.83L20.55 18.17L18.67 16.91C18.176 16.579 17.5947 16.4022 17 16.4022C16.4053 16.4022 15.824 16.579 15.33 16.91L14.56 17.43C14.3946 17.5418 14.1996 17.6015 14 17.6015C13.8004 17.6015 13.6054 17.5418 13.44 17.43L12.67 16.91C12.176 16.579 11.5947 16.4022 11 16.4022C10.4053 16.4022 9.82403 16.579 9.33 16.91L8.56 17.43C8.39463 17.5418 8.1996 17.6015 8 17.6015C7.8004 17.6015 7.60537 17.5418 7.44 17.43L6.67 16.91C6.17597 16.579 5.59469 16.4022 5 16.4022C4.40531 16.4022 3.82403 16.579 3.33 16.91L1.45 18.17L2.55 19.83L4.44 18.57C4.60537 18.4582 4.8004 18.3985 5 18.3985C5.1996 18.3985 5.39463 18.4582 5.56 18.57L6.33 19.09C6.82403 19.421 7.40531 19.5978 8 19.5978C8.59469 19.5978 9.17597 19.421 9.67 19.09L10.44 18.57C10.6054 18.4582 10.8004 18.3985 11 18.3985C11.1996 18.3985 11.3946 18.4582 11.56 18.57L12.33 19.09C12.824 19.421 13.4053 19.5978 14 19.5978C14.5947 19.5978 15.176 19.421 15.67 19.09L16.44 18.57C16.6054 18.4582 16.8004 18.3985 17 18.3985C17.1996 18.3985 17.3946 18.4582 17.56 18.57Z" fill="white"/>
</svg>
